# Blender v2.75 (sub 0) OBJ File: ''
# www.blender.org
mtllib cabinetwithdoors.mtl
o Bottom_Shelf_Bottom0
v -0.437500 -0.187500 -0.437500
v 0.437500 -0.187500 -0.437500
v 0.437500 -0.187500 0.187500
v -0.437500 -0.187500 0.187500
vt 0.062500 0.937500
vt 0.937500 0.937500
vt 0.937500 0.312500
vt 0.062500 0.312500
vn 0.000000 -1.000000 -0.000000
usemtl FrontColor
s 1
f 1/1/1 2/2/1 3/3/1
f 4/4/1 1/1/1 3/3/1
o Top_Shelf_Face0
v 0.437500 0.187500 -0.062500
v -0.437500 0.187500 -0.062500
v -0.437500 0.125000 -0.062500
v 0.437500 0.125000 -0.062500
vt 0.937500 0.687500
vt 0.062500 0.687500
vt 0.062500 0.625000
vt 0.937500 0.625000
vn 0.000000 -0.000000 1.000000
usemtl FrontColor
s 1
f 5/5/2 6/6/2 7/7/2
f 8/8/2 5/5/2 7/7/2
o rightdoubledoor
v -0.031250 -0.500000 0.031250
v -0.031250 0.375000 0.031250
v -0.031250 0.375000 -0.031250
v 0.468750 0.375000 0.031250
v 0.468750 0.375000 -0.031250
v 0.468750 -0.500000 -0.031250
v -0.031250 -0.500000 -0.031250
v 0.468750 -0.500000 0.031250
vt 1.000000 0.062500
vt 1.000000 0.937500
vt 0.937500 0.937500
vt 1.000000 0.875000
vt 0.500000 0.937500
vt 0.500000 0.062500
vt 1.000000 0.125000
vt 0.500000 0.125000
vt 0.562500 0.062500
vt 0.562500 0.937500
vt 0.937500 0.062500
vt 0.500000 0.875000
vn -1.000000 0.000000 0.000000
vn 0.000000 1.000000 0.000000
vn 0.000000 0.000000 -1.000000
vn 0.000000 -0.000000 1.000000
vn 0.000000 -1.000000 0.000000
vn 1.000000 0.000000 0.000000
usemtl None
s off
f 9/9/3 10/10/3 11/11/3
f 11/12/4 10/10/4 12/13/4
f 11/10/5 13/13/5 14/14/5
f 12/13/6 10/10/6 9/9/6
f 15/15/7 14/16/7 16/14/7
f 14/17/8 13/18/8 12/13/8
f 15/19/3 9/9/3 11/11/3
f 13/20/4 11/12/4 12/13/4
f 15/9/5 11/10/5 14/14/5
f 16/14/6 12/13/6 9/9/6
f 9/9/7 15/15/7 16/14/7
f 16/14/8 14/17/8 12/13/8
o Inner_Back2
v 0.437500 -0.187500 -0.437500
v -0.437500 -0.187500 -0.437500
v -0.437500 -0.437500 -0.437500
v 0.437500 -0.437500 -0.437500
vt 0.937500 0.312500
vt 0.062500 0.312500
vt 0.062500 0.062500
vt 0.937500 0.062500
vn 0.000000 -0.000000 1.000000
usemtl FrontColor
s 1
f 17/21/9 18/22/9 19/23/9
f 20/24/9 17/21/9 19/23/9
o leftdoor
v -0.968750 0.375000 -0.031250
v 0.031250 0.375000 -0.031250
v 0.031250 -0.500000 -0.031250
v -0.968750 -0.500000 -0.031250
v -0.968750 -0.500000 0.031250
v 0.031250 0.375000 0.031250
v 0.031250 -0.500000 0.031250
v -0.968750 0.375000 0.031250
vt 1.000000 0.937500
vt 0.000000 0.937500
vt 0.000000 0.062500
vt 1.000000 0.062500
vt 0.937500 0.062500
vt 0.062500 0.937500
vt 1.000000 0.125000
vt 0.000000 0.125000
vt 0.000000 0.875000
vt 1.000000 0.875000
vt 0.937500 0.937500
vt 0.062500 0.062500
vn 0.000000 0.000000 -1.000000
vn -1.000000 0.000000 0.000000
vn 1.000000 0.000000 0.000000
vn 0.000000 -0.000000 1.000000
vn 0.000000 -1.000000 0.000000
vn 0.000000 1.000000 0.000000
usemtl None
s off
f 21/25/10 22/26/10 23/27/10
f 21/25/11 24/28/11 25/29/11
f 23/27/12 22/26/12 26/30/12
f 25/28/13 27/27/13 26/26/13
f 25/28/14 24/31/14 23/32/14
f 26/26/15 22/33/15 21/34/15
f 24/28/10 21/25/10 23/27/10
f 28/35/11 21/25/11 25/29/11
f 27/36/12 23/27/12 26/30/12
f 28/25/13 25/28/13 26/26/13
f 27/27/14 25/28/14 23/32/14
f 28/25/15 26/26/15 21/34/15
o Inner_Top0
v -0.437500 0.437500 0.437500
v 0.437500 0.437500 0.437500
v 0.500000 0.437500 0.500000
v -0.500000 0.437500 0.500000
v -0.500000 0.437500 0.437500
v 0.500000 0.437500 0.437500
v -0.437500 0.437500 -0.437500
v 0.437500 0.437500 -0.437500
vt 0.062500 0.062500
vt 0.937500 0.062500
vt 1.000000 0.000000
vt 0.000000 0.000000
vt 0.000000 0.062500
vt 1.000000 0.062500
vt 0.062500 0.937500
vt 0.937500 0.937500
vn 0.000000 -1.000000 -0.000000
usemtl FrontColor
s 1
f 29/37/16 30/38/16 31/39/16
f 29/37/16 32/40/16 33/41/16
f 30/38/16 34/42/16 31/39/16
f 35/43/16 36/44/16 30/38/16
f 31/39/16 32/40/16 29/37/16
f 29/37/16 35/43/16 30/38/16
o leftdoubledoor
v -0.468750 -0.500000 0.031250
v -0.468750 0.375000 0.031250
v -0.468750 0.375000 -0.031250
v 0.031250 0.375000 0.031250
v 0.031250 0.375000 -0.031250
v 0.031250 -0.500000 -0.031250
v -0.468750 -0.500000 -0.031250
v 0.031250 -0.500000 0.031250
vt 0.437500 0.062500
vt 0.437500 0.937500
vt 0.500000 0.937500
vt 0.500000 0.875000
vt 0.000000 0.937500
vt 0.000000 0.062500
vt 0.500000 0.062500
vt 0.500000 0.125000
vt 0.000000 0.125000
vt 0.062500 0.062500
vt 0.062500 0.937500
vt 0.000000 0.875000
vn -1.000000 0.000000 0.000000
vn 0.000000 1.000000 0.000000
vn 0.000000 0.000000 -1.000000
vn 0.000000 -0.000000 1.000000
vn 0.000000 -1.000000 0.000000
vn 1.000000 0.000000 0.000000
usemtl None
s off
f 37/45/17 38/46/17 39/47/17
f 39/48/18 38/47/18 40/49/18
f 39/47/19 41/49/19 42/50/19
f 40/49/20 38/47/20 37/51/20
f 43/52/21 42/53/21 44/50/21
f 42/54/22 41/55/22 40/49/22
f 43/51/17 37/45/17 39/47/17
f 41/56/18 39/48/18 40/49/18
f 43/51/19 39/47/19 42/50/19
f 44/50/20 40/49/20 37/51/20
f 37/51/21 43/52/21 44/50/21
f 44/50/22 42/54/22 40/49/22
o Face2
v 0.500000 0.437500 0.500000
v 0.500000 0.500000 0.500000
v -0.500000 0.500000 0.500000
v -0.500000 0.437500 0.500000
vt 1.000000 0.937500
vt 1.000000 1.000000
vt 0.000000 1.000000
vt 0.000000 0.937500
vn 0.000000 0.000000 1.000000
usemtl FrontColor
s 1
f 45/57/23 46/58/23 47/59/23
f 48/60/23 45/57/23 47/59/23
o Bottom0
v 0.500000 -0.500000 -0.500000
v 0.500000 -0.500000 0.500000
v -0.500000 -0.500000 0.500000
v -0.500000 -0.500000 -0.500000
vt 1.000000 1.000000
vt 1.000000 0.000000
vt 0.000000 0.000000
vt 0.000000 1.000000
vn 0.000000 -1.000000 -0.000000
usemtl FrontColor
s 1
f 49/61/24 50/62/24 51/63/24
f 52/64/24 49/61/24 51/63/24
o Face1
v -0.437500 -0.437500 0.437500
v -0.437500 0.437500 0.437500
v -0.500000 0.437500 0.437500
v -0.500000 -0.437500 0.437500
vt 0.062500 0.062500
vt 0.062500 0.937500
vt 0.000000 0.937500
vt 0.000000 0.062500
vn 0.000000 -0.000000 1.000000
usemtl FrontColor
s 1
f 53/65/25 54/66/25 55/67/25
f 56/68/25 53/65/25 55/67/25
o Inner_Bottom0
v 0.437500 -0.437500 0.437500
v -0.437500 -0.437500 0.437500
v -0.500000 -0.437500 0.500000
v 0.500000 -0.437500 0.500000
v 0.500000 -0.437500 0.437500
v -0.500000 -0.437500 0.437500
v 0.437500 -0.437500 -0.437500
v -0.437500 -0.437500 -0.437500
vt 0.937500 0.062500
vt 0.062500 0.062500
vt 0.000000 0.000000
vt 1.000000 0.000000
vt 1.000000 0.062500
vt -0.000000 0.062500
vt 0.937500 0.937500
vt 0.062500 0.937500
vn 0.000000 1.000000 0.000000
usemtl FrontColor
s 1
f 57/69/26 58/70/26 59/71/26
f 57/69/26 60/72/26 61/73/26
f 58/70/26 62/74/26 59/71/26
f 63/75/26 64/76/26 58/70/26
f 59/71/26 60/72/26 57/69/26
f 57/69/26 63/75/26 58/70/26
o Top_Shelf_Bottom0
v 0.437500 0.125000 -0.062500
v -0.437500 0.125000 -0.062500
v -0.437500 0.125000 -0.437500
v 0.437500 0.125000 -0.437500
vt 0.937500 0.625000
vt 0.062500 0.625000
vt 0.062500 0.937500
vt 0.937500 0.937500
vn 0.000000 -1.000000 -0.000000
usemtl FrontColor
s 1
f 65/77/27 66/78/27 67/79/27
f 68/80/27 65/77/27 67/79/27
o Back0
v -0.500000 -0.500000 -0.500000
v -0.500000 0.500000 -0.500000
v 0.500000 0.500000 -0.500000
v 0.500000 -0.500000 -0.500000
vt 1.000000 0.000000
vt 1.000000 1.000000
vt 0.000000 1.000000
vt 0.000000 0.000000
vn 0.000000 0.000000 -1.000000
usemtl FrontColor
s 1
f 69/81/28 70/82/28 71/83/28
f 72/84/28 69/81/28 71/83/28
o rightdoor
v 0.968750 0.375000 0.031250
v 0.968750 0.375000 -0.031250
v -0.031250 0.375000 -0.031250
v 0.968750 -0.500000 -0.031250
v -0.031250 -0.500000 -0.031250
v -0.031250 -0.500000 0.031250
v 0.968750 -0.500000 0.031250
v -0.031250 0.375000 0.031250
vt 0.000000 0.937500
vt 0.000000 0.875000
vt 1.000000 0.875000
vt 1.000000 0.937500
vt 0.000000 0.062500
vt 0.937500 0.937500
vt 0.937500 0.062500
vt 1.000000 0.062500
vt 0.062500 0.937500
vt 1.000000 0.125000
vt 0.000000 0.125000
vt 0.062500 0.062500
vn 0.000000 1.000000 0.000000
vn 0.000000 0.000000 -1.000000
vn -1.000000 0.000000 0.000000
vn 1.000000 0.000000 0.000000
vn 0.000000 -0.000000 1.000000
vn 0.000000 -1.000000 0.000000
usemtl None
s off
f 73/85/29 74/86/29 75/87/29
f 75/88/30 74/85/30 76/89/30
f 75/90/31 77/91/31 78/92/31
f 76/89/32 74/85/32 73/93/32
f 78/92/33 79/89/33 73/85/33
f 78/92/34 77/94/34 76/95/34
f 80/88/29 73/85/29 75/87/29
f 77/92/30 75/88/30 76/89/30
f 80/88/31 75/90/31 78/92/31
f 79/96/32 76/89/32 73/93/32
f 80/88/33 78/92/33 73/85/33
f 79/89/34 78/92/34 76/95/34
o Right0
v 0.500000 -0.500000 -0.500000
v 0.500000 0.500000 -0.500000
v 0.500000 -0.437500 0.437500
v 0.500000 0.500000 0.500000
v 0.500000 0.437500 0.500000
v 0.500000 0.437500 0.437500
v 0.500000 -0.437500 0.500000
v 0.500000 -0.500000 0.500000
vt 1.000000 0.000000
vt 1.000000 1.000000
vt 0.062500 0.062500
vt 0.000000 1.000000
vt 0.000000 0.937500
vt 0.062500 0.937500
vt 0.000000 0.062500
vt 0.000000 0.000000
vn 1.000000 0.000000 0.000000
usemtl FrontColor
s 1
f 81/97/35 82/98/35 83/99/35
f 84/100/35 85/101/35 86/102/35
f 83/99/35 87/103/35 88/104/35
f 82/98/35 84/100/35 86/102/35
f 83/99/35 88/104/35 81/97/35
f 82/98/35 86/102/35 83/99/35
o Top0
v 0.500000 0.500000 0.500000
v 0.500000 0.500000 -0.500000
v -0.500000 0.500000 -0.500000
v -0.500000 0.500000 0.500000
vt 0.999900 0.000100
vt 0.999900 0.999900
vt 0.000100 0.999900
vt 0.000100 0.000100
vn 0.000000 1.000000 0.000000
usemtl FrontColor
s 1
f 89/105/36 90/106/36 91/107/36
f 92/108/36 89/105/36 91/107/36
o Face0
v 0.437500 0.437500 0.437500
v 0.437500 -0.437500 0.437500
v 0.500000 -0.437500 0.437500
v 0.500000 0.437500 0.437500
vt 0.937500 0.937500
vt 0.937500 0.062500
vt 1.000000 0.062500
vt 1.000000 0.937500
vn 0.000000 -0.000000 1.000000
usemtl FrontColor
s 1
f 93/109/37 94/110/37 95/111/37
f 96/112/37 93/109/37 95/111/37
o Inner_Back0
v 0.437500 -0.125000 -0.437500
v 0.437500 0.125000 -0.437500
v -0.437500 0.125000 -0.437500
v -0.437500 -0.125000 -0.437500
vt 0.937500 0.375000
vt 0.937500 0.625000
vt 0.062500 0.625000
vt 0.062500 0.375000
vn 0.000000 -0.000000 1.000000
usemtl FrontColor
s 1
f 97/113/38 98/114/38 99/115/38
f 100/116/38 97/113/38 99/115/38
o Inner_Right0
v 0.437500 0.187500 -0.062500
v 0.437500 -0.125000 0.187500
v 0.437500 0.437500 0.437500
v 0.437500 -0.187500 0.187500
v 0.437500 -0.437500 -0.437500
v 0.437500 -0.437500 0.437500
v 0.437500 0.437500 -0.437500
v 0.437500 0.187500 -0.437500
v 0.437500 -0.187500 -0.437500
v 0.437500 0.125000 -0.062500
v 0.437500 -0.125000 -0.437500
v 0.437500 0.125000 -0.437500
vt 0.562500 0.687500
vt 0.312500 0.375000
vt 0.062500 0.937500
vt 0.312500 0.312500
vt 0.937500 0.062500
vt 0.062500 0.062500
vt 0.937500 0.937500
vt 0.937500 0.687500
vt 0.937500 0.312500
vt 0.562500 0.625000
vt 0.937500 0.375000
vt 0.937500 0.625000
vn -1.000000 -0.000000 0.000000
usemtl FrontColor
s 1
f 101/117/39 102/118/39 103/119/39
f 104/120/39 105/121/39 106/122/39
f 101/117/39 107/123/39 108/124/39
f 104/120/39 109/125/39 105/121/39
f 103/119/39 107/123/39 101/117/39
f 102/118/39 106/122/39 103/119/39
f 110/126/39 111/127/39 102/118/39
f 102/118/39 104/120/39 106/122/39
f 102/118/39 101/117/39 110/126/39
f 110/126/39 112/128/39 111/127/39
o Inner_Left0
v -0.437500 -0.125000 0.187500
v -0.437500 0.125000 -0.062500
v -0.437500 0.187500 -0.062500
v -0.437500 0.437500 -0.437500
v -0.437500 0.437500 0.437500
v -0.437500 -0.187500 0.187500
v -0.437500 -0.437500 -0.437500
v -0.437500 -0.187500 -0.437500
v -0.437500 0.187500 -0.437500
v -0.437500 -0.437500 0.437500
v -0.437500 -0.125000 -0.437500
v -0.437500 0.125000 -0.437500
vt 0.312500 0.375000
vt 0.562500 0.625000
vt 0.562500 0.687500
vt 0.937500 0.937500
vt 0.062500 0.937500
vt 0.312500 0.312500
vt 0.937500 0.062500
vt 0.937500 0.312500
vt 0.937500 0.687500
vt 0.062500 0.062500
vt 0.937500 0.375000
vt 0.937500 0.625000
vn 1.000000 0.000000 0.000000
usemtl FrontColor
s 1
f 113/129/40 114/130/40 115/131/40
f 115/131/40 116/132/40 117/133/40
f 118/134/40 119/135/40 120/136/40
f 115/131/40 121/137/40 116/132/40
f 122/138/40 119/135/40 118/134/40
f 113/129/40 115/131/40 117/133/40
f 113/129/40 122/138/40 118/134/40
f 114/130/40 123/139/40 124/140/40
f 117/133/40 122/138/40 113/129/40
f 113/129/40 123/139/40 114/130/40
o Bottom_Shelf_Top0
v -0.437500 -0.125000 0.187500
v 0.437500 -0.125000 0.187500
v 0.437500 -0.125000 -0.437500
v -0.437500 -0.125000 -0.437500
vt 0.062500 0.312500
vt 0.937500 0.312500
vt 0.937500 0.937500
vt 0.062500 0.937500
vn 0.000000 1.000000 0.000000
usemtl FrontColor
s 1
f 125/141/41 126/142/41 127/143/41
f 128/144/41 125/141/41 127/143/41
o Left0
v -0.500000 -0.437500 0.437500
v -0.500000 0.437500 0.437500
v -0.500000 0.500000 -0.500000
v -0.500000 -0.500000 0.500000
v -0.500000 -0.437500 0.500000
v -0.500000 0.500000 0.500000
v -0.500000 -0.500000 -0.500000
v -0.500000 0.437500 0.500000
vt 0.937500 0.062500
vt 0.937500 0.937500
vt 0.000000 1.000000
vt 1.000000 0.000000
vt 1.000000 0.062500
vt 1.000000 1.000000
vt 0.000000 0.000000
vt 1.000000 0.937500
vn -1.000000 0.000000 0.000000
usemtl FrontColor
s 1
f 129/145/42 130/146/42 131/147/42
f 129/145/42 132/148/42 133/149/42
f 130/146/42 134/150/42 131/147/42
f 135/151/42 132/148/42 129/145/42
f 130/146/42 136/152/42 134/150/42
f 131/147/42 135/151/42 129/145/42
o Bottom_Shelf_Face0
v -0.437500 -0.187500 0.187500
v 0.437500 -0.187500 0.187500
v 0.437500 -0.125000 0.187500
v -0.437500 -0.125000 0.187500
vt 0.062500 0.312500
vt 0.937500 0.312500
vt 0.937500 0.375000
vt 0.062500 0.375000
vn 0.000000 -0.000000 1.000000
usemtl FrontColor
s 1
f 137/153/43 138/154/43 139/155/43
f 140/156/43 137/153/43 139/155/43
o Face3
v -0.500000 -0.437500 0.500000
v -0.500000 -0.500000 0.500000
v 0.500000 -0.500000 0.500000
v 0.500000 -0.437500 0.500000
vt 0.000025 0.062522
vt 0.000025 0.000025
vt 0.999975 0.000025
vt 1.000000 0.062500
vn 0.000000 -0.000000 1.000000
usemtl FrontColor
s 1
f 141/157/44 142/158/44 143/159/44
f 144/160/44 141/157/44 143/159/44
o Top_Shelf_Top0
v 0.437500 0.187500 -0.437500
v -0.437500 0.187500 -0.437500
v -0.437500 0.187500 -0.062500
v 0.437500 0.187500 -0.062500
vt 0.937500 0.937500
vt 0.062500 0.937500
vt 0.062500 0.562500
vt 0.937500 0.562500
vn 0.000000 1.000000 0.000000
usemtl FrontColor
s 1
f 145/161/45 146/162/45 147/163/45
f 148/164/45 145/161/45 147/163/45
o Inner_Back1
v -0.437500 0.187500 -0.437500
v 0.437500 0.187500 -0.437500
v 0.437500 0.437500 -0.437500
v -0.437500 0.437500 -0.437500
vt 0.062500 0.687500
vt 0.937500 0.687500
vt 0.937500 0.937500
vt 0.062500 0.937500
vn 0.000000 -0.000000 1.000000
usemtl FrontColor
s 1
f 149/165/46 150/166/46 151/167/46
f 152/168/46 149/165/46 151/167/46
